<svg viewBox="0 0 350.69333 212.08" height="212.08" width="350.69333" xmlns="http://www.w3.org/2000/svg">
  <g transform="matrix(.13333333 0 0 -.13333333 0 212.08)">
    <path fill="#0071bc" id="roof"
      d="m2487.22 716.293-873.08 873.077-1.03 1.22-.11-.09-.08.09-1.03-1.02-652.929-548.43v424.27h-300v-676.25l-658.961-553.488 120.59-143.5822 1481.38 1244.2702 752.65-752.661z" />
    <g fill="#000" id="rmd">
      <path
        d="m1014.36 503.809h108.28c41.11 0 61.67 20.562 61.67 61.671v63.833c0 41.582-20.56 62.382-61.67 62.382h-108.28c-4.78 0-7.17-2.148-7.17-6.457v-174.968c0-4.301 2.39-6.461 7.17-6.461zm-17.208-227.309h-32.269c-6.699 0-10.039 3.34-10.039 10.039v441.004c0 6.691 3.34 10.039 10.039 10.039h164.927c32.99 0 59.04-9.441 78.17-28.32 19.11-18.887 28.68-44.817 28.68-77.801v-65.25c0-26.781-6.45-48.891-19.36-66.34s-30.84-29.039-53.78-34.781v-2.871l83.18-174.25c4.3-7.649 1.9-11.469-7.17-11.469h-32.27c-8.13 0-14.11 3.34-17.93 10.039l-80.31 173.531h-94.66c-4.78 0-7.17-2.148-7.17-6.449v-167.082c0-6.699-3.35-10.039-10.038-10.039" />
      <path
        d="m1658.47 737.582h58.09c6.69 0 10.04-3.348 10.04-10.039v-441.004c0-6.699-3.35-10.039-10.04-10.039h-31.56c-6.69 0-10.03 3.34-10.03 10.039v380.77h-2.88l-111.14-281.098c-2.87-6.223-7.17-9.32-12.91-9.32h-34.42c-6.21 0-10.29 3.097-12.19 9.32l-113.3 281.82h-2.87v-381.492c0-6.699-3.11-10.039-9.32-10.039h-31.55c-6.7 0-10.04 3.34-10.04 10.039v441.004c0 6.691 3.34 10.039 10.04 10.039h58.09c4.3 0 7.16-1.914 8.6-5.73l117.6-296.883h3.59l117.6 296.883c.96 3.816 3.82 5.73 8.6 5.73" />
      <path
        d="m1899.14 322.398h120.46c40.16 0 60.24 20.793 60.24 62.383v244.532c0 41.582-20.08 62.382-60.24 62.382h-120.46c-4.79 0-7.18-2.148-7.18-6.457v-356.398c0-4.289 2.39-6.442 7.18-6.442zm-59.53-35.859v441.004c0 6.691 3.34 10.039 10.04 10.039h176.41c32.99 0 58.91-9.441 77.8-28.32 18.88-18.887 28.32-44.817 28.32-77.801v-248.832c0-32.988-9.44-58.918-28.32-77.809-18.89-18.89-44.81-28.32-77.8-28.32h-176.41c-6.7 0-10.04 3.34-10.04 10.039" />
    </g>
    <g fill="#999" id="gmbh">
      <path
        d="m1030.93 44.5703h-34.067c-13.058 0-23.328 3.6992-30.8 11.0781-7.477 7.3711-11.215 17.6836-11.215 30.9414v98.5002c0 13.242 3.738 23.558 11.215 30.941 7.472 7.379 17.742 11.071 30.8 11.071h34.067c13.05 0 23.32-3.692 30.8-11.071 7.47-7.383 11.21-17.699 11.21-30.941v-13.91c0-2.649-1.32-3.981-3.98-3.981h-12.77c-2.65 0-3.97 1.332-3.97 3.981v13.058c0 16.473-7.95 24.703-23.85 24.703h-29.233c-15.715 0-23.567-8.23-23.567-24.703v-96.7966c0-16.4726 7.852-24.7031 23.567-24.7031h29.233c15.9 0 23.85 8.2305 23.85 24.7031v13.0466c0 2.66 1.32 3.981 3.97 3.981h12.77c2.66 0 3.98-1.321 3.98-3.981v-13.8982c0-13.2578-3.74-23.5703-11.21-30.9414-7.48-7.3789-17.75-11.0781-30.8-11.0781" />
      <path
        d="m1109.84 48.5508v136.8282c0 2.641 1.23 3.973 3.69 3.973h13.06c2.64 0 3.97-1.332 3.97-3.973v-136.8282c0-2.6602-1.33-3.9805-3.97-3.9805h-12.78c-2.65 0-3.97 1.3203-3.97 3.9805zm0 164.6482v26.68c0 2.641 1.23 3.973 3.69 3.973h13.06c2.64 0 3.97-1.332 3.97-3.973v-26.68c0-2.66-1.33-3.98-3.97-3.98h-13.06c-2.46 0-3.69 1.32-3.69 3.98" />
      <path
        d="m1176.55 171.18h-15.61c-2.66 0-3.98 1.23-3.98 3.691v10.508c0 2.641 1.32 3.973 3.98 3.973h15.61c1.89 0 2.83.847 2.83 2.546v24.411c0 2.652 1.33 3.98 3.98 3.98h12.77c2.46 0 3.69-1.328 3.69-3.98v-24.411c0-1.699 1.04-2.546 3.13-2.546h30.09c2.84 0 4.25-1.332 4.25-3.973v-10.508c0-2.461-1.41-3.691-4.25-3.691h-30.09c-2.09 0-3.13-.848-3.13-2.551v-81.7579c0-16.082 8.33-24.1328 24.98-24.1328h11.08c2.84 0 4.26-1.3164 4.26-3.9766v-10.4922c0-2.4687-1.42-3.6992-4.26-3.6992h-13.63c-13.06 0-23.47 3.6485-31.22 10.9297-7.77 7.2891-11.65 17.4609-11.65 30.5195v82.6095c0 1.703-.94 2.551-2.83 2.551" />
      <path
        d="m1281.86 0h-12.49c-2.65 0-3.97 1.33203-3.97 3.98047v10.50783c0 2.6406 1.32 3.9726 3.97 3.9726h7.09c12.11 0 20.63 3.4102 25.56 10.2188 3.97 5.4805 7.56 13.3398 10.78 23.5586h-8.23c-2.27 0-3.88 1.3203-4.82 3.9726l-41.73 129.1681c-.76 2.641.18 3.973 2.83 3.973h13.63c2.46 0 4.06-1.332 4.83-3.973l36.61-116.9571h1.14l36.62 116.9571c.57 2.641 2.08 3.973 4.54 3.973h13.06c3.22 0 4.35-1.43 3.41-4.262l-42.3-134.84c-4.73-16.0898-10.74-28.4805-18.02-37.1914-7.29-8.69922-18.13-13.0586-32.51-13.0586" />
      <path
        d="m1500.15 62.1719h46.56c16.27 0 24.42 8.0469 24.42 24.1289v18.4492c0 16.082-8.71 24.129-26.12 24.129h-44.86c-1.89 0-2.83-.848-2.83-2.547v-61.3203c0-1.8906.94-2.8398 2.83-2.8398zm0 84.0271h43.73c16.64 0 24.98 8.039 24.98 24.133v15.047c0 16.082-8.04 24.133-24.14 24.133h-44.57c-1.89 0-2.83-.961-2.83-2.852v-57.91c0-1.699.94-2.551 2.83-2.551zm-23.55-97.6482v174.5782c0 2.652 1.32 3.973 3.96 3.973h66.72c13.07 0 23.28-3.641 30.66-10.922 7.39-7.289 11.06-17.469 11.06-30.52v-15.621c0-16.84-7.93-27.719-23.83-32.641 7.19-.566 13.34-3.738 18.44-9.507 5.12-5.782 7.67-13.391 7.67-22.852v-19.0195c0-13.0586-3.75-23.2304-11.21-30.5195-7.48-7.2812-17.75-10.9297-30.8-10.9297h-68.71c-2.64 0-3.96 1.3203-3.96 3.9805" />
      <path
        d="m1713.63 88.8594v79.7696c0 1.703-.96 2.551-2.85 2.551h-39.73c-15.72 0-23.57-8.239-23.57-24.7v-59.0386c0-16.4726 7.85-24.7031 23.57-24.7031h16.17c8.52 0 15.04 2.2734 19.59 6.8125 4.53 4.5508 6.82 10.9805 6.82 19.3086zm-30.1-44.2891h-14.77c-13.04 0-23.32 3.6992-30.8 11.0781-7.48 7.3711-11.21 17.6836-11.21 30.9414v60.7502c0 13.242 3.73 23.551 11.21 30.941 7.48 7.379 17.76 11.071 30.8 11.071h61.61c2.65 0 3.98-1.332 3.98-3.973v-136.8282c0-2.6602-1.33-3.9805-3.98-3.9805h-12.78c-2.65 0-3.96 1.3203-3.96 3.9805v11.0703h-1.13c-4.75-10.0391-14.4-15.0508-28.97-15.0508" />
      <path
        d="m1828.86 44.5703h-15.9c-12.87 0-22.89 3.6992-30.07 11.0781-7.21 7.3711-10.81 17.6836-10.81 30.9414v98.7892c0 2.641 1.33 3.973 3.99 3.973h12.77c2.66 0 3.97-1.332 3.97-3.973v-97.9376c0-16.4726 7.85-24.7031 23.57-24.7031h16.17c8.52 0 15.06 2.2734 19.59 6.8125 4.55 4.5508 6.82 10.9805 6.82 19.3086v96.5196c0 2.641 1.33 3.973 3.96 3.973h12.78c2.65 0 3.98-1.332 3.98-3.973v-136.8282c0-2.6602-1.33-3.9805-3.98-3.9805h-12.78c-2.63 0-3.96 1.3203-3.96 3.9805v11.0703h-1.13c-4.75-10.0391-14.4-15.0508-28.97-15.0508" />
      <path
        d="m2063.63 44.5703h-30.67c-13.04 0-23.32 3.6992-30.8 11.0781-7.48 7.3711-11.21 17.6836-11.21 30.9414v98.5002c0 13.242 3.73 23.558 11.21 30.941 7.48 7.379 17.76 11.071 30.8 11.071h30.67c13.04 0 23.28-3.743 30.66-11.211 7.37-7.481 11.06-17.743 11.06-30.801v-11.641c0-2.84-1.33-4.258-3.97-4.258h-12.77c-2.66 0-3.99 1.418-3.99 4.258v10.789c0 16.473-7.85 24.703-23.55 24.703h-25.84c-15.7 0-23.56-8.23-23.56-24.703v-96.7966c0-16.4726 7.86-24.7031 23.56-24.7031h25.84c15.7 0 23.55 8.2305 23.55 24.7031v31.7886c0 1.891-.84 2.84-2.54 2.84h-28.1c-2.66 0-3.98 1.231-3.98 3.7v10.492c0 2.648 1.32 3.976 3.98 3.976h45.7c3.77 0 5.67-1.976 5.67-5.957v-47.6912c0-13.2578-3.69-23.5703-11.06-30.9414-7.38-7.3789-17.62-11.0781-30.66-11.0781" />
      <path
        d="m2161.28 44.5703h-12.77c-2.66 0-3.98 1.3203-3.98 3.9805v136.8282c0 2.641 1.32 3.973 3.98 3.973h12.77c2.64 0 3.97-1.332 3.97-3.973v-11.078h1.13c5.29 10.031 15.33 15.051 30.1 15.051h10.51c16.64 0 28.18-6.442 34.63-19.313 3.02 6.25 7.79 11.031 14.33 14.34 6.53 3.312 13.38 4.973 20.57 4.973h9.94c12.87 0 22.89-3.692 30.1-11.071 7.19-7.39 10.78-17.699 10.78-30.941v-98.7892c0-2.6602-1.33-3.9805-3.97-3.9805h-12.77c-2.66 0-3.98 1.3203-3.98 3.9805v97.9292c0 16.461-7.95 24.7-23.85 24.7h-9.36c-8.51 0-15.09-2.418-19.74-7.239-4.63-4.82-6.96-11.41-6.96-19.73v-95.6602c0-2.6602-1.32-3.9805-3.96-3.9805h-12.77c-2.66 0-3.99 1.3203-3.99 3.9805v97.9292c0 16.461-7.95 24.7-23.83 24.7h-10.5c-8.52 0-15.06-2.27-19.59-6.809-4.56-4.539-6.82-10.98-6.82-19.312v-96.5082c0-2.6602-1.33-3.9805-3.97-3.9805" />
      <path
        d="m2388.65 62.7383h40.31c16.09 0 24.14 8.2305 24.14 24.7031v60.7496c0 16.457-8.05 24.688-24.14 24.688h-16.74c-8.51 0-15.06-2.27-19.59-6.809-4.55-4.539-6.81-10.879-6.81-19.019v-81.7502c0-1.6992.93-2.5625 2.83-2.5625zm-23.56-14.1875v191.6092c0 2.649 1.33 3.969 3.99 3.969h12.77c2.64 0 3.97-1.32 3.97-3.969v-64.148h1.13c4.72 10.027 14.37 15.039 28.96 15.039h15.9c12.85 0 23.03-3.692 30.51-11.071 7.48-7.378 11.21-17.601 11.21-30.66v-62.7302c0-13.2578-3.73-23.5703-11.21-30.9414-7.48-7.3789-17.66-11.0781-30.51-11.0781h-62.73c-2.66 0-3.99 1.3203-3.99 3.9805" />
      <path
        d="m2529.45 44.5703h-12.78c-2.65 0-3.98 1.3203-3.98 3.9805v174.5782c0 2.652 1.33 3.973 3.98 3.973h12.78c2.65 0 3.96-1.321 3.96-3.973v-74.66c0-1.699.96-2.559 2.85-2.559h70.4c1.89 0 2.85.86 2.85 2.559v74.66c0 2.652 1.31 3.973 3.96 3.973h12.78c2.65 0 3.98-1.321 3.98-3.973v-174.5782c0-2.6602-1.33-3.9805-3.98-3.9805h-12.78c-2.65 0-3.96 1.3203-3.96 3.9805v76.6402c0 1.707-.96 2.559-2.85 2.559h-70.4c-1.89 0-2.85-.852-2.85-2.559v-76.6402c0-2.6602-1.31-3.9805-3.96-3.9805" />
    </g>
  </g>
</svg>