<svg version="1" xmlns="http://www.w3.org/2000/svg" width="445.333" height="445.333" viewBox="0 0 334.000000 334.000000"><path d="M180.5 87.1c-2.8 2.2-6.1 5-7.5 6.2-1.4 1.2-5.9 4.9-10 8.1-4.1 3.3-7.7 6.3-8 6.6-.3.3-1.4 1.3-2.6 2.1-1.1.8-4.5 3.5-7.5 6-3 2.6-8.5 7.2-12.4 10.3-3.8 3.2-7.8 6.3-8.8 7.1-.9.8-1.9 1.5-2.2 1.5-.3 0-.5-8.7-.5-19.4 0-15.3-.3-19.6-1.4-20.5-.9-.8-6.3-1.1-16.7-.9l-15.4.3-.3 34.4-.2 34.4-2.8 2.6c-1.5 1.4-4.7 4.2-7.2 6.1-5.1 4-31.2 25.2-32 26-.3.3-2.7 2.3-5.5 4.5-2.7 2.2-5.6 4.5-6.3 5.2-.7.7-3.9 3.3-7.2 5.9-3.3 2.6-6 5.3-6 6.1 0 .7 2 3.4 4.5 6.1 2.5 2.6 4.5 5 4.5 5.4 0 .4.9 1.2 2 1.8 2.3 1.2 3.1.8 10.7-5.8 2.6-2.2 8.9-7.3 13.8-11.3 5-4 9.2-7.6 9.5-7.9.3-.3 3.9-3.2 8-6.5s8.4-6.7 9.5-7.7c7.1-5.9 20.5-16.9 36.5-29.9 6.3-5.1 11.7-9.6 12-9.9.3-.3 3.9-3.3 8-6.6 4.1-3.2 8-6.4 8.6-6.9.7-.6 2-1.7 3.1-2.5 5.5-4.4 18.9-15.5 19.3-15.9.3-.4 3.8-3.3 7.9-6.6l7.3-5.9 5.7 6c14.8 15.7 23.5 25 34.1 36.3 22.8 24.5 30.3 32.1 31.9 32.1.9 0 4.5-2.7 8-5.9 4.9-4.4 6.2-6.1 5.5-7.3-.5-.9-7-8-14.4-15.8-15.4-16.3-16.3-17.3-32-34.1-6.3-6.8-15.1-16.2-19.6-20.9-4.4-4.7-9.8-10.4-11.9-12.8-2-2.3-4.5-4.2-5.4-4.2-.9 0-3.9 1.8-6.6 4.1z"/><path d="M119 190.1v25l2.8-.3c2.7-.3 2.7-.3 3-9.2l.3-8.9 6.9.5c3.8.3 7.6 1.1 8.4 1.8 1 .8 1.6 3.5 1.8 8.3l.3 7.2h6l.3-6.8c.3-6 0-7.3-2.1-10.1l-2.5-3.2 2.4-2.9c2.1-2.6 2.4-4.1 2.4-10.8 0-13.2-3.1-15.7-19.5-15.7H119v25.1zm20.5-18.9c2.4 1.1 2.5 1.5 2.5 9.3 0 5-.5 8.6-1.2 9.3-.7.7-4.2 1.2-8.5 1.2H125v-21h6c3.2 0 7.1.5 8.5 1.2zM153 190.1v25l2.8-.3 2.7-.3.5-17.8.5-17.9 2.8 5.4c1.5 2.9 2.7 5.9 2.7 6.5 0 .7.3 1.3.8 1.3.8 0 3.2 4.9 3.2 6.7 0 .7.5 1.3 1 1.3.6 0 1 .6 1 1.4 0 1.7 2.4 2.8 4.5 2 .8-.3 4.1-5.9 7.2-12.5 3.2-6.5 6.1-11.9 6.5-11.9.4 0 .6 1 .6 2.2-.1 1.3-.1 9.4 0 18l.2 15.8h5v-50.1l-3.2.3c-3.6.3-3.5.2-12.7 19.6-5 10.5-5.3 10.7-7.8 5.2-.6-1.4-3.5-7.6-6.4-13.8-5.2-10.9-5.4-11.2-8.6-11.2H153v25.1zM202 190v25h12.6c14.5 0 16.7-.7 20.2-6.8 1.6-2.9 1.7-33.4 0-36.5-3-5.7-6.1-6.7-20.3-6.7H202v25zm23.5-18.6l3.5 1.5v34.6l-2.7 1.2c-1.5.7-6.2 1.3-10.5 1.3H208v-19.3c0-10.7.3-19.7.7-20 1.2-1.3 13.3-.7 16.8.7zM118.7 221.8c-2.3 2.5-2.5 17.3-.2 19.2 4.1 3.4 13.6 1.4 12.1-2.6-.6-1.5-.8-1.6-2.4 0-2.2 1.9-5.3 2.1-7 .4-.7-.7-1.2-4-1.2-8 0-6.4.1-6.8 2.6-7.4 1.4-.4 3.7-.1 5.1.5 3 1.4 4.1.7 2.7-1.7-1.6-2.6-9.5-2.8-11.7-.4zM133.4 221.1c-.8 1.4 1.8 3.1 3 1.9.9-.9 0-3-1.4-3-.5 0-1.2.5-1.6 1.1zM140.4 221.7c-.3 1-.9 2.5-1.4 3.4-.4.9-.4 2.2.1 3 .5.8.9 3.7.9 6.5 0 5.6 2.3 9.1 5 7.4 1.1-.7 1.2-1.1 0-2.5-1.6-1.9-1.8-9.1-.2-10.7 1.9-1.9 3.2.3 3.2 5.7 0 4.9.3 5.6 2.8 6.8 1.5.7 3.5 1.2 4.5 1 2.1-.5 2.2 1 .3 2.6-1.1.9-2 .9-3.5.2-2.1-1.2-3.7 0-2.6 1.9.9 1.4 7.8 1.3 9.3-.2 1.7-1.7 1.7-21.1 0-20.6-.8.3-1.5 2.9-1.8 6.4-.5 5.5-.7 5.9-3 5.9s-2.5-.4-3-6c-.4-4.4-.9-6-2-6.1-2.9-.3-6-1.6-5.5-2.4.7-1.1-.5-4-1.6-4-.5 0-1.2.8-1.5 1.7zM170.7 220.7c-1.2 1.2-.8 19.8.5 21.1 1.8 1.8 6.9 1.5 10.8-.7 3.5-1.9 3.5-1.9 5.7.1 1.8 1.7 3 1.9 7 1.3l4.9-.6-.4-6.2c-.5-8.5-4.5-11.8-10.3-8.7-3 1.7-2.3 3.3 1.1 2.5 1.6-.3 3.7-.2 4.7.3 1.4.9 1 1.2-2.4 2.1-2.2.6-4.6 1.8-5.4 2.7-1.1 1.3-1.4 1.2-2.4-1.3-.7-1.5-1-4.4-.7-6.4.6-4.9-1.6-6.9-7.7-6.9-2.6 0-5.1.3-5.4.7zm10.1 5.5c.3 2.5-1.5 3.7-5.5 3.8-1.5 0-2.6-3.5-1.8-5.9.4-1.5 1.2-1.7 3.8-1.2 2.5.5 3.3 1.2 3.5 3.3zm1.1 9.2c.8 4.4-7.4 6.5-8.5 2.2-.9-3.6.3-4.7 4.4-4.4 2.7.2 3.8.8 4.1 2.2zm13.9 1.8c-.3 2.5-4.3 3.7-6 2-1.9-1.9 0-4.2 3.2-4.2 2.7 0 3.1.3 2.8 2.2zM225.8 221.4c-2.6 1.9-2.8 16.9-.3 19.6 2.5 2.7 8.8 2.7 11.5 0 1.7-1.7 2.1-1.8 2.6-.5.4.8 1.2 1.5 2 1.5 1 0 1.4-1.5 1.4-5.9 0-6.2 1.4-8.6 4.4-7.5 1.2.5 1.6 2 1.6 7.1 0 5.6.2 6.4 1.8 6.1 1.4-.3 1.8-1.6 2-6.6.3-5.8.4-6.2 2.7-6.2 2.2 0 2.4.4 2.7 6.2.2 3.8.8 6.3 1.6 6.6.9.3 1.2-1.5 1.2-6.7 0-6.5-.2-7.2-2.5-8.7-2.1-1.4-3.1-1.5-5.1-.5-1.7.7-3.1.8-4.3.1-1-.5-3.4-.7-5.4-.3-2.8.4-3.6 1.1-4 3.2-.5 2.4-.9 2.7-4.1 2.3-3.7-.4-5.1 1.3-2.1 2.4.9.4 1.5 1.9 1.5 3.6 0 2.8-.2 2.9-3.7 2.6l-3.8-.3v-16l3.5.1c1.9 0 4.3.4 5.3.8 2.4 1.1 2.3-2-.2-3.4-2.7-1.4-8.2-1.2-10.3.4zM264 230.8v10.9l3.7.6c6 1 8.3-1.1 8.3-7.7 0-6.1-1.4-7.9-6-7.9-2.5 0-2.9-.5-3.2-3-.2-1.7-.9-3.2-1.5-3.5-1-.3-1.3 2.3-1.3 10.6zm7.4-1.2c1.1.4 1.6 1.8 1.6 4.3 0 4.8-1.2 6.5-3.9 5.6-1.7-.5-2.1-1.4-2.1-5 0-2.5.5-4.5 1.3-4.8.6-.3 1.3-.6 1.4-.6.1-.1.8.2 1.7.5zM278.6 221.7c-.6 2.3-.6 16.2 0 18.5.3 1 1.2 1.8 2 1.8 1 0 1.4-1.3 1.4-4.5 0-4.5 0-4.5 3.5-4.5 3.4 0 3.5.1 3.5 3.9 0 4.1 1.6 6.3 3 4.1 1-1.7 1.1-18.3 0-20-1.4-2.2-3 0-3 4.1 0 3.8-.1 3.9-3.5 3.9-3.5 0-3.5 0-3.5-4.5 0-3.2-.4-4.5-1.4-4.5-.8 0-1.7.8-2 1.7zM133.4 227.4c-.3.7-.4 4.2-.2 7.7.2 4.9.7 6.4 1.8 6.4 1.2 0 1.6-1.7 1.8-7.8.2-6.5 0-7.7-1.3-7.7-.9 0-1.8.6-2.1 1.4zM201.7 226.6c-1.5 1.5-.7 11.2 1.1 13.2 1.8 2.2 2.8 2.5 8 2.3l3.2-.1v-8.1c0-7.1-.2-8-1.7-7.7-1.5.3-1.9 1.6-2.1 6.6-.3 5.8-.4 6.2-2.7 6.2-2.2 0-2.4-.4-2.7-6.2-.3-5.7-1.4-7.9-3.1-6.2z"/></svg>